HIERARCHY
ROOT Hips
{
	OFFSET 0.000000 100.481300 0.000000
	CHANNELS 6 Xposition Yposition Zposition Xrotation Yrotation Zrotation 
	JOINT Spine
	{
		OFFSET -0.279200 12.230698 -2.892100
		CHANNELS 3 Xrotation Yrotation Zrotation
		JOINT Spine1
		{
			OFFSET -0.232667 10.192268 -1.242267
			CHANNELS 3 Xrotation Yrotation Zrotation
			JOINT Spine1_split
			{
				OFFSET -0.232667 10.192268 -1.242267
				CHANNELS 3 Xrotation Yrotation Zrotation
				JOINT Spine2
				{
					OFFSET -0.232667 10.192268 -1.242267
					CHANNELS 3 Xrotation Yrotation Zrotation
					JOINT Neck
					{
						OFFSET -0.418800 17.814194 8.416900
						CHANNELS 3 Xrotation Yrotation Zrotation
						JOINT Head
						{
							OFFSET 0.000000 7.031097 3.806800
							CHANNELS 3 Xrotation Yrotation Zrotation
							JOINT HeadTop_End
							{
								OFFSET 0.000000 24.646606 12.978600
								CHANNELS 3 Xrotation Yrotation Zrotation
								End Site
								{
									OFFSET 0.000000 0.000000 0.000000
								}
							}
						}
					}
					JOINT LeftShoulder
					{
						OFFSET 8.476499 7.247704 -3.868750
						CHANNELS 3 Xrotation Yrotation Zrotation
						JOINT LeftShoulder_split
						{
							OFFSET 8.476499 7.247704 -3.868750
							CHANNELS 3 Xrotation Yrotation Zrotation
							JOINT LeftArm
							{
								OFFSET 9.308998 -2.777710 0.208600
								CHANNELS 3 Xrotation Yrotation Zrotation
								JOINT LeftForeArm
								{
									OFFSET 29.972298 0.000000 0.000000
									CHANNELS 3 Xrotation Yrotation Zrotation
									JOINT LeftHand
									{
										OFFSET 26.026505 0.000000 0.000000
										CHANNELS 3 Xrotation Yrotation Zrotation
										JOINT LeftHandThumb1
										{
											OFFSET 12.240501 -7.147949 9.207150
											CHANNELS 3 Xrotation Yrotation Zrotation
											JOINT LeftHandThumb2
											{
												OFFSET 4.138618 -2.389435 2.389433
												CHANNELS 3 Xrotation Yrotation Zrotation
												JOINT LeftHandThumb3
												{
													OFFSET 2.726913 -1.574387 1.574386
													CHANNELS 3 Xrotation Yrotation Zrotation
													JOINT LeftHandThumb4
													{
														OFFSET 3.941010 -2.275345 2.275342
														CHANNELS 3 Xrotation Yrotation Zrotation
														End Site
														{
															OFFSET 0.000000 0.000000 0.000000
														}
													}
												}
											}
										}
										JOINT LeftHandIndex1
										{
											OFFSET 24.424698 -1.985611 5.953459
											CHANNELS 3 Xrotation Yrotation Zrotation
											JOINT LeftHandIndex2
											{
												OFFSET 6.426697 0.000000 0.000000
												CHANNELS 3 Xrotation Yrotation Zrotation
												JOINT LeftHandIndex3
												{
													OFFSET 5.337898 0.000000 0.000000
													CHANNELS 3 Xrotation Yrotation Zrotation
													JOINT LeftHandIndex4
													{
														OFFSET 4.409401 0.000000 0.000000
														CHANNELS 3 Xrotation Yrotation Zrotation
														End Site
														{
															OFFSET 0.000000 0.000000 0.000000
														}
													}
												}
											}
										}
										JOINT LeftHandMiddle1
										{
											OFFSET 23.810104 0.000000 0.000000
											CHANNELS 3 Xrotation Yrotation Zrotation
											JOINT LeftHandMiddle2
											{
												OFFSET 7.176498 0.000000 0.000000
												CHANNELS 3 Xrotation Yrotation Zrotation
												JOINT LeftHandMiddle3
												{
													OFFSET 6.774902 0.000000 0.000000
													CHANNELS 3 Xrotation Yrotation Zrotation
													JOINT LeftHandMiddle4
													{
														OFFSET 5.403328 0.000000 0.000000
														CHANNELS 3 Xrotation Yrotation Zrotation
														End Site
														{
															OFFSET 0.000000 0.000000 0.000000
														}
													}
												}
											}
										}
										JOINT LeftHandRing1
										{
											OFFSET 22.908401 -0.839279 -6.020567
											CHANNELS 3 Xrotation Yrotation Zrotation
											JOINT LeftHandRing2
											{
												OFFSET 6.337502 0.000000 0.000000
												CHANNELS 3 Xrotation Yrotation Zrotation
												JOINT LeftHandRing3
												{
													OFFSET 5.779297 0.000000 0.000000
													CHANNELS 3 Xrotation Yrotation Zrotation
													JOINT LeftHandRing4
													{
														OFFSET 4.965698 0.000000 0.000000
														CHANNELS 3 Xrotation Yrotation Zrotation
														End Site
														{
															OFFSET 0.000000 0.000000 0.000000
														}
													}
												}
											}
										}
										JOINT LeftHandPinky1
										{
											OFFSET 20.037003 -1.530319 -10.950146
											CHANNELS 3 Xrotation Yrotation Zrotation
											JOINT LeftHandPinky2
											{
												OFFSET 5.254700 0.000000 0.000000
												CHANNELS 3 Xrotation Yrotation Zrotation
												JOINT LeftHandPinky3
												{
													OFFSET 4.810204 0.000000 0.000000
													CHANNELS 3 Xrotation Yrotation Zrotation
													JOINT LeftHandPinky4
													{
														OFFSET 3.647202 0.000000 0.000000
														CHANNELS 3 Xrotation Yrotation Zrotation
														End Site
														{
															OFFSET 0.000000 0.000000 0.000000
														}
													}
												}
											}
										}
									}
								}
							}
						}
					}
					JOINT RightShoulder
					{
						OFFSET -7.570500 7.247704 -3.868750
						CHANNELS 3 Xrotation Yrotation Zrotation
						JOINT RightShoulder_split
						{
							OFFSET -7.570500 7.247704 -3.868750
							CHANNELS 3 Xrotation Yrotation Zrotation
							JOINT RightArm
							{
								OFFSET -9.308998 -2.777710 0.208500
								CHANNELS 3 Xrotation Yrotation Zrotation
								JOINT RightForeArm
								{
									OFFSET -29.972300 0.000000 0.000000
									CHANNELS 3 Xrotation Yrotation Zrotation
									JOINT RightHand
									{
										OFFSET -26.026505 0.000000 0.000000
										CHANNELS 3 Xrotation Yrotation Zrotation
										JOINT RightHandThumb1
										{
											OFFSET -12.240601 -7.148026 9.207092
											CHANNELS 3 Xrotation Yrotation Zrotation
											JOINT RightHandThumb2
											{
												OFFSET -4.138618 -2.389435 2.389433
												CHANNELS 3 Xrotation Yrotation Zrotation
												JOINT RightHandThumb3
												{
													OFFSET -2.726974 -1.574417 1.574421
													CHANNELS 3 Xrotation Yrotation Zrotation
													JOINT RightHandThumb4
													{
														OFFSET -3.941010 -2.275345 2.275343
														CHANNELS 3 Xrotation Yrotation Zrotation
														End Site
														{
															OFFSET 0.000000 0.000000 0.000000
														}
													}
												}
											}
										}
										JOINT RightHandIndex1
										{
											OFFSET -24.424698 -1.985657 5.953444
											CHANNELS 3 Xrotation Yrotation Zrotation
											JOINT RightHandIndex2
											{
												OFFSET -6.426697 0.000000 0.000000
												CHANNELS 3 Xrotation Yrotation Zrotation
												JOINT RightHandIndex3
												{
													OFFSET -5.337898 0.000000 0.000000
													CHANNELS 3 Xrotation Yrotation Zrotation
													JOINT RightHandIndex4
													{
														OFFSET -4.409401 0.000000 0.000000
														CHANNELS 3 Xrotation Yrotation Zrotation
														End Site
														{
															OFFSET 0.000000 0.000000 0.000000
														}
													}
												}
											}
										}
										JOINT RightHandMiddle1
										{
											OFFSET -23.810097 0.000000 0.000000
											CHANNELS 3 Xrotation Yrotation Zrotation
											JOINT RightHandMiddle2
											{
												OFFSET -7.176498 0.000000 0.000000
												CHANNELS 3 Xrotation Yrotation Zrotation
												JOINT RightHandMiddle3
												{
													OFFSET -6.774902 0.000000 0.000000
													CHANNELS 3 Xrotation Yrotation Zrotation
													JOINT RightHandMiddle4
													{
														OFFSET -5.403328 0.000000 0.000000
														CHANNELS 3 Xrotation Yrotation Zrotation
														End Site
														{
															OFFSET 0.000000 0.000000 0.000000
														}
													}
												}
											}
										}
										JOINT RightHandRing1
										{
											OFFSET -22.908302 -0.839325 -6.020576
											CHANNELS 3 Xrotation Yrotation Zrotation
											JOINT RightHandRing2
											{
												OFFSET -6.337502 0.000000 0.000000
												CHANNELS 3 Xrotation Yrotation Zrotation
												JOINT RightHandRing3
												{
													OFFSET -5.779297 0.000000 0.000000
													CHANNELS 3 Xrotation Yrotation Zrotation
													JOINT RightHandRing4
													{
														OFFSET -4.965698 0.000000 0.000000
														CHANNELS 3 Xrotation Yrotation Zrotation
														End Site
														{
															OFFSET 0.000000 0.000000 0.000000
														}
													}
												}
											}
										}
										JOINT RightHandPinky1
										{
											OFFSET -20.037003 -1.530334 -10.950259
											CHANNELS 3 Xrotation Yrotation Zrotation
											JOINT RightHandPinky2
											{
												OFFSET -5.254700 0.000000 0.000000
												CHANNELS 3 Xrotation Yrotation Zrotation
												JOINT RightHandPinky3
												{
													OFFSET -4.810204 0.000000 0.000000
													CHANNELS 3 Xrotation Yrotation Zrotation
													JOINT RightHandPinky4
													{
														OFFSET -3.647202 0.000000 0.000000
														CHANNELS 3 Xrotation Yrotation Zrotation
														End Site
														{
															OFFSET 0.000000 0.000000 0.000000
														}
													}
												}
											}
										}
									}
								}
							}
						}
					}
				}
			}
		}
	}
	JOINT LeftUpLeg
	{
		OFFSET 15.427100 -6.655098 0.678600
		CHANNELS 3 Xrotation Yrotation Zrotation
		JOINT LeftLeg
		{
			OFFSET 4.081073 -39.591068 13.024000
			CHANNELS 3 Xrotation Yrotation Zrotation
			JOINT LeftFoot
			{
				OFFSET -4.081074 -37.707932 -15.979700
				CHANNELS 3 Xrotation Yrotation Zrotation
				JOINT LeftToeBase
				{
					OFFSET 5.346399 -15.068900 20.645000
					CHANNELS 3 Xrotation Yrotation Zrotation
					JOINT LeftToe_End
					{
						OFFSET 2.754700 0.931300 11.300900
						CHANNELS 3 Xrotation Yrotation Zrotation
						End Site
						{
							OFFSET 0.000000 0.000000 0.000000
						}
					}
				}
			}
		}
	}
	JOINT RightUpLeg
	{
		OFFSET -15.569500 -6.655098 0.678600
		CHANNELS 3 Xrotation Yrotation Zrotation
		JOINT RightLeg
		{
			OFFSET -4.081825 -39.591045 13.023800
			CHANNELS 3 Xrotation Yrotation Zrotation
			JOINT RightFoot
			{
				OFFSET 4.081824 -37.707954 -15.979600
				CHANNELS 3 Xrotation Yrotation Zrotation
				JOINT RightToeBase
				{
					OFFSET -5.346400 -15.068900 20.645000
					CHANNELS 3 Xrotation Yrotation Zrotation
					JOINT RightToe_End
					{
						OFFSET -2.754700 0.931300 11.300900
						CHANNELS 3 Xrotation Yrotation Zrotation
						End Site
						{
							OFFSET 0.000000 0.000000 0.000000
						}
					}
				}
			}
		}
	}
}
MOTION
Frames: 4
Frame Time: 0.016667
-3.514162 82.224060 -1.172603 51.985837 -71.002972 52.841830 7.781268 3.541312 4.567593 12.707912 6.406370 6.655403 0.000000 0.000000 0.000000 12.728354 6.436535 6.586121 3.385413 -0.460119 2.258537 8.874434 1.648280 -4.487674 0.000000 -0.000001 0.000001 0.608285 -2.105587 -11.581399 0.000000 0.000000 0.000000 -46.459141 -29.078813 -92.550702 -0.000010 -20.859010 -0.000014 -20.416217 18.957788 30.637920 55.682663 -2.117600 45.305577 81.950338 -1.423293 50.782463 -10.247778 17.984624 1.554704 -0.000001 0.000002 0.000001 0.230316 3.926597 -22.478585 5.723163 5.849668 -88.745310 5.723161 5.849675 -88.745276 -0.000000 0.000001 0.000000 6.341372 9.458927 -58.484287 6.990980 5.739317 -101.253327 6.566592 5.807287 -97.036265 0.000001 -0.000000 -0.000000 7.415892 8.807740 -74.918023 5.953046 5.850179 -91.000420 6.157383 5.843054 -93.006228 -0.000001 -0.000000 -0.000000 20.711377 9.388336 -85.840718 5.062046 5.797807 -82.236625 4.939058 5.779796 -81.017464 -0.000001 0.000002 -0.000001 -0.784368 15.466931 22.252674 0.000000 0.000000 0.000000 -56.162887 25.008336 77.070933 0.000012 0.015607 -0.000001 -12.877768 -7.607200 2.872475 -0.787146 13.150278 -22.268094 11.690847 -49.505641 19.340389 2.734736 -6.739218 -25.279054 -0.000004 -0.000001 -0.000000 -2.857586 -16.672244 -11.849128 4.400800 -4.650132 86.841006 4.400810 -4.650129 86.841129 0.000001 0.000003 0.000000 6.189296 -11.029354 41.067120 5.549097 -4.571163 101.053223 5.225960 -4.622404 97.022653 -0.000001 -0.000002 0.000001 -0.865229 -4.640759 62.576335 4.860685 -4.652748 92.507536 5.023313 -4.642795 94.514047 0.000001 -0.000001 -0.000001 -13.667260 -1.460345 72.993152 3.233225 -4.434610 72.178147 3.235036 -4.435176 72.201766 0.000000 -0.000000 -0.000001 -53.044352 2.203437 -2.869684 43.493723 -8.367137 2.253388 -7.040809 -1.392430 -0.641367 -0.379283 1.642670 -1.202614 0.000000 0.000000 -0.000000 -41.766112 -4.147569 -20.763352 45.123696 -2.590814 -0.993200 -15.789324 -4.305061 16.079906 -1.799726 -0.000001 0.000009 0.000000 0.000000 -0.000000 
-3.517483 82.246391 -1.121667 51.906193 -70.987290 52.745340 7.782222 3.536724 4.557318 12.722934 6.393030 6.642681 0.000000 0.000000 0.000000 12.744216 6.422136 6.572925 3.354589 -0.453952 2.186394 8.724209 1.871164 -4.553507 -0.000000 0.000000 0.000001 0.608189 -2.112949 -11.540777 0.000000 0.000000 0.000000 -46.406365 -29.046298 -92.578126 -0.000004 -20.879940 -0.000004 -20.407343 18.976309 30.509359 55.367535 -2.060173 45.240936 83.883281 -1.387115 51.818477 -10.307670 17.537426 1.597565 -0.000001 0.000001 0.000000 0.241770 3.953148 -22.443459 5.716006 5.849501 -88.675123 5.716006 5.849496 -88.675089 -0.000000 -0.000001 -0.000001 6.324669 9.455585 -58.401683 6.991000 5.739316 -101.253327 6.566582 5.807302 -97.036272 0.000001 0.000000 0.000002 7.408059 8.809526 -74.848478 5.949549 5.850241 -90.966010 6.153896 5.843228 -92.971845 -0.000000 -0.000000 -0.000002 20.660060 9.414997 -85.725301 5.052635 5.796522 -82.143366 4.930491 5.778426 -80.932243 0.000001 -0.000000 -0.000001 -0.774896 15.458369 22.231166 0.000000 0.000000 0.000000 -54.597291 24.896588 76.442903 -0.000007 2.873096 0.000002 -12.870070 -9.290300 2.437204 -0.798243 13.174569 -22.271970 11.757510 -49.535882 19.412188 2.724985 -6.695496 -25.326415 -0.000000 -0.000002 0.000002 -2.848287 -16.689897 -11.803245 4.402683 -4.650227 86.864147 4.402681 -4.650230 86.864263 -0.000001 -0.000002 -0.000000 6.207317 -11.051171 41.060912 5.549112 -4.571148 101.053243 5.225964 -4.622383 97.022639 -0.000000 0.000002 0.000002 -0.875327 -4.637314 62.599401 4.858824 -4.652825 92.484293 5.021441 -4.642933 94.490852 0.000001 -0.000000 -0.000001 -13.666212 -1.439290 72.929707 3.229973 -4.433577 72.135950 3.231784 -4.434136 72.159589 -0.000001 -0.000000 -0.000002 -53.006250 2.191357 -2.900380 43.460429 -8.343387 2.246001 -7.033376 -1.395218 -0.598648 -0.314248 1.660608 -1.234945 0.000000 -0.000000 0.000000 -41.702902 -4.168788 -20.798855 45.045251 -2.556843 -0.967425 -15.757885 -4.343465 16.093338 -1.807303 -0.000022 0.000003 0.000000 0.000000 0.000000 
-3.517195 82.267754 -1.069418 51.840101 -70.965870 52.666492 7.783471 3.526981 4.549501 12.734715 6.382441 6.620576 0.000000 0.000000 0.000000 12.753690 6.413130 6.553448 3.323824 -0.449311 2.118597 8.568377 2.100365 -4.603555 -0.000000 0.000000 -0.000000 0.607741 -2.121764 -11.501770 0.000000 0.000000 0.000000 -46.348755 -29.026173 -92.588699 -0.000012 -20.910914 0.000002 -20.414899 18.980105 30.448191 55.053428 -2.001874 45.179847 85.655333 -1.068766 52.951622 -10.366738 17.090008 1.640432 -0.000000 0.000001 0.000001 0.253188 3.979752 -22.408319 5.708868 5.849350 -88.604957 5.708869 5.849337 -88.604909 0.000000 -0.000000 -0.000003 6.308004 9.452204 -58.319092 6.990972 5.739329 -101.253333 6.566592 5.807290 -97.036265 0.000000 0.000000 -0.000003 7.400225 8.811302 -74.778933 5.946049 5.850289 -90.931627 6.150386 5.843405 -92.937489 -0.000000 0.000000 -0.000000 20.608655 9.441482 -85.609864 5.043223 5.795209 -82.050140 4.921893 5.777058 -80.847057 -0.000001 -0.000000 -0.000001 -0.771698 15.442481 22.219739 0.000000 0.000000 0.000000 -54.175544 25.033934 76.267757 0.000011 3.450905 -0.000001 -13.186381 -9.532909 2.438379 -0.811504 13.198151 -22.276925 11.835238 -49.570166 19.495015 2.713438 -6.643955 -25.382930 -0.000000 0.000000 0.000002 -2.834080 -16.711502 -11.736781 4.407197 -4.650483 86.920052 4.407219 -4.650483 86.920181 0.000000 0.000000 -0.000001 6.223064 -11.065508 41.078916 5.549092 -4.571149 101.053243 5.225951 -4.622394 97.022639 0.000001 0.000000 -0.000000 -0.885590 -4.633926 62.624645 4.855912 -4.652952 92.448543 5.018533 -4.643168 94.455103 0.000001 -0.000002 -0.000001 -13.660870 -1.426059 72.885324 3.226699 -4.432514 72.093753 3.228520 -4.433090 72.117399 -0.000000 -0.000000 -0.000001 -52.976320 2.150200 -2.916922 43.416384 -8.251001 2.219924 -7.005918 -1.390043 -0.593229 -0.366033 1.568023 -1.148003 -0.000000 0.000000 -0.000000 -41.653680 -4.186137 -20.842046 44.970765 -2.535377 -0.945051 -15.723562 -4.367744 16.115778 -1.783692 -0.000009 -0.000001 -0.000000 0.000000 0.000000 
-3.515148 82.285919 -1.016301 51.780743 -70.941760 52.594888 7.784443 3.523094 4.538081 12.748116 6.372646 6.603424 0.000000 0.000000 0.000000 12.767405 6.402611 6.536468 3.292758 -0.439161 2.047259 8.416546 2.324632 -4.644361 -0.000001 -0.000000 -0.000001 0.605204 -2.134134 -11.471708 0.000000 0.000000 0.000000 -46.290398 -29.015337 -92.588514 -0.000019 -20.949847 -0.000010 -20.434111 18.977732 30.419248 54.740377 -1.942703 45.122241 87.181060 -0.340576 54.208394 -10.425088 16.642391 1.683336 -0.000000 -0.000000 0.000000 0.264602 4.006394 -22.373268 5.701702 5.849153 -88.534722 5.701718 5.849170 -88.534681 0.000000 -0.000001 -0.000002 6.291376 9.448818 -58.236515 6.990982 5.739330 -101.253347 6.566584 5.807297 -97.036258 0.000000 0.000000 0.000002 7.392395 8.813072 -74.709401 5.942553 5.850351 -90.897237 6.146886 5.843575 -92.903140 0.000000 0.000000 0.000005 20.557106 9.467793 -85.494420 5.033791 5.793909 -81.956902 4.913316 5.775691 -80.761878 -0.000001 -0.000000 -0.000001 -0.765695 15.424794 22.200333 0.000000 0.000000 0.000000 -53.294747 25.069707 75.930810 0.000008 4.975354 -0.000005 -13.266099 -10.397362 2.181861 -0.824700 13.208693 -22.283770 11.930308 -49.611670 19.594092 2.699765 -6.586559 -25.450478 -0.000000 0.000002 0.000000 -2.809463 -16.735804 -11.630354 4.407948 -4.650497 86.929389 4.407985 -4.650534 86.929511 0.000001 0.000001 -0.000001 6.238560 -11.074699 41.121171 5.549111 -4.571163 101.053223 5.225931 -4.622386 97.022646 -0.000001 -0.000003 -0.000000 -0.896614 -4.631394 62.666118 4.854697 -4.653001 92.433401 5.017316 -4.643248 94.439967 -0.000000 0.000000 0.000002 -13.676179 -1.418070 72.876582 3.223446 -4.431464 72.051508 3.225265 -4.432039 72.075264 -0.000000 0.000000 -0.000001 -52.961089 2.161632 -2.968048 43.396194 -8.267285 2.223013 -7.006213 -1.398794 -0.539790 -0.297193 1.680637 -1.255446 0.000000 0.000000 -0.000000 -41.608256 -4.190947 -20.885101 44.900697 -2.506226 -0.916380 -15.688767 -4.407610 16.134818 -1.794747 0.000015 -0.000001 -0.000000 0.000000 0.000000 
